<svg width="205" height="38" viewBox="0 0 205 38" fill="none" xmlns="http://www.w3.org/2000/svg">
<g filter="url(#filter0_d_57_276)">
<path d="M5.91154 32.5L21.5 5.5L37.0885 32.5H5.91154Z" stroke="black" stroke-width="1.5"/>
<path d="M11.1077 29.5L21.5 11.5L31.8923 29.5H11.1077Z" stroke="black" stroke-width="1.5"/>
<path d="M16.3038 26.5L21.5 17.5L26.6962 26.5H16.3038Z" stroke="black" stroke-width="1.5"/>
<path d="M43 11.5273H48.5469C49.6016 11.5273 50.5098 11.7292 51.2715 12.1328C52.0332 12.5299 52.6126 13.0898 53.0098 13.8125C53.4069 14.5286 53.6055 15.3555 53.6055 16.293C53.6055 17.237 53.4004 18.0703 52.9902 18.793C52.5866 19.5091 51.9974 20.0658 51.2227 20.4629C50.4544 20.86 49.5365 21.0586 48.4688 21.0586H45.9297V25.668H43V11.5273ZM48 18.6953C48.8464 18.6953 49.4876 18.4805 49.9238 18.0508C50.36 17.6146 50.5781 17.0286 50.5781 16.293C50.5781 15.5638 50.36 14.9876 49.9238 14.5645C49.4876 14.1413 48.8464 13.9297 48 13.9297H45.9297V18.6953H48Z" fill="black"/>
<path d="M55.4609 11.5273H61.0078C62.069 11.5273 62.9772 11.7161 63.7324 12.0938C64.4941 12.4714 65.0736 13.0085 65.4707 13.7051C65.8678 14.3952 66.0664 15.2057 66.0664 16.1367C66.0664 17.1003 65.8516 17.9271 65.4219 18.6172C64.9922 19.3073 64.3737 19.8249 63.5664 20.1699L66.5742 25.668H63.332L60.627 20.6484H58.3906V25.668H55.4609V11.5273ZM60.4609 18.2656C62.1797 18.2656 63.0391 17.556 63.0391 16.1367C63.0391 15.4141 62.8242 14.8672 62.3945 14.4961C61.9648 14.1185 61.3203 13.9297 60.4609 13.9297H58.3906V18.2656H60.4609Z" fill="black"/>
<path d="M71.0273 25.668H68.0977V11.5273H71.0273V25.668Z" fill="black"/>
<path d="M81.0859 15.5703C81.0273 15.0104 80.7832 14.5742 80.3535 14.2617C79.9238 13.9492 79.3542 13.793 78.6445 13.793C78.1562 13.793 77.7363 13.8646 77.3848 14.0078C77.0397 14.1445 76.776 14.3366 76.5938 14.584C76.4115 14.8314 76.3203 15.1146 76.3203 15.4336C76.3203 15.8893 76.5254 16.2539 76.9355 16.5273C77.3457 16.8008 77.8958 17.0156 78.5859 17.1719L79.8555 17.4844C81.1641 17.7773 82.196 18.2624 82.9512 18.9395C83.7129 19.61 84.0938 20.5052 84.0938 21.625C84.0938 22.4909 83.8757 23.2428 83.4395 23.8809C83.0033 24.5124 82.375 25.0007 81.5547 25.3457C80.7344 25.6908 79.7578 25.8633 78.625 25.8633C77.4792 25.8633 76.4831 25.6875 75.6367 25.3359C74.7969 24.9844 74.1426 24.4668 73.6738 23.7832C73.2116 23.0931 72.9674 22.25 72.9414 21.2539H75.793C75.8385 21.9505 76.112 22.4844 76.6133 22.8555C77.1211 23.2201 77.7786 23.4023 78.5859 23.4023C79.0938 23.4023 79.5397 23.3275 79.9238 23.1777C80.3079 23.028 80.6042 22.8197 80.8125 22.5527C81.0208 22.2858 81.125 21.9766 81.125 21.625C81.125 21.1693 80.9264 20.8079 80.5293 20.541C80.1387 20.2741 79.5299 20.0365 78.7031 19.8281L77.1602 19.457C74.5951 18.8255 73.3125 17.543 73.3125 15.6094C73.3125 14.763 73.5404 14.0176 73.9961 13.373C74.4583 12.722 75.0964 12.2207 75.9102 11.8691C76.724 11.5111 77.6419 11.332 78.6641 11.332C79.6927 11.332 80.6009 11.5111 81.3887 11.8691C82.1764 12.2272 82.7884 12.7285 83.2246 13.373C83.6608 14.0111 83.8854 14.7435 83.8984 15.5703H81.0859Z" fill="black"/>
<path d="M89.6406 11.5273L93.5664 21.1172H93.7227L97.6484 11.5273H101.281V25.668H98.4297V16.4102H98.3125L94.6211 25.6094H92.668L88.9766 16.3711H88.8594V25.668H86.0078V11.5273H89.6406Z" fill="black"/>
<path d="M109.055 11.5273H110.812V24.1055H117.375V25.668H109.055V11.5273Z" fill="black"/>
<path d="M119.304 15.0625H120.984V25.668H119.304V15.0625ZM120.144 13.3047C119.818 13.3047 119.542 13.1973 119.314 12.9824C119.086 12.7676 118.972 12.5039 118.972 12.1914C118.972 11.8789 119.086 11.6152 119.314 11.4004C119.542 11.1855 119.818 11.0781 120.144 11.0781C120.469 11.0781 120.749 11.1855 120.984 11.4004C121.218 11.6152 121.335 11.8789 121.335 12.1914C121.335 12.5039 121.218 12.7676 120.984 12.9824C120.749 13.1973 120.469 13.3047 120.144 13.3047Z" fill="black"/>
<path d="M128.264 25.668H126.526L122.62 15.0625H124.455L127.346 23.4805H127.463L130.354 15.0625H132.19L128.264 25.668Z" fill="black"/>
<path d="M137.908 25.8828C136.899 25.8828 136.02 25.6582 135.271 25.209C134.522 24.7598 133.946 24.125 133.543 23.3047C133.145 22.4844 132.947 21.5339 132.947 20.4531C132.947 19.3724 133.145 18.4154 133.543 17.582C133.946 16.7422 134.509 16.0911 135.232 15.6289C135.961 15.1602 136.801 14.9258 137.752 14.9258C138.552 14.9258 139.298 15.1048 139.988 15.4629C140.678 15.8145 141.238 16.3874 141.668 17.1816C142.104 17.9694 142.322 18.9818 142.322 20.2188V20.9219H134.627C134.653 21.6576 134.806 22.2858 135.086 22.8066C135.365 23.3275 135.746 23.7246 136.228 23.998C136.716 24.265 137.276 24.3984 137.908 24.3984C138.507 24.3984 139.011 24.2878 139.421 24.0664C139.838 23.8385 140.154 23.5456 140.369 23.1875H142.166C141.996 23.7214 141.713 24.1934 141.316 24.6035C140.925 25.0072 140.437 25.3229 139.851 25.5508C139.272 25.7721 138.624 25.8828 137.908 25.8828ZM140.623 19.4961C140.623 18.9036 140.502 18.3763 140.261 17.9141C140.027 17.4453 139.692 17.0775 139.255 16.8105C138.819 16.5436 138.318 16.4102 137.752 16.4102C137.159 16.4102 136.632 16.5501 136.17 16.8301C135.714 17.11 135.352 17.4876 135.086 17.9629C134.825 18.4316 134.675 18.9427 134.636 19.4961H140.623Z" fill="black"/>
<path d="M155.078 15.082C155.026 14.6263 154.86 14.2357 154.58 13.9102C154.307 13.5781 153.942 13.3275 153.486 13.1582C153.031 12.9824 152.52 12.8945 151.953 12.8945C151.341 12.8945 150.798 12.9954 150.322 13.1973C149.854 13.3926 149.489 13.666 149.229 14.0176C148.975 14.3691 148.848 14.7695 148.848 15.2188C148.848 15.8698 149.111 16.3678 149.639 16.7129C150.173 17.0579 150.82 17.3281 151.582 17.5234L152.988 17.9141C154.082 18.194 155.023 18.627 155.811 19.2129C156.598 19.7923 156.992 20.6615 156.992 21.8203C156.992 22.5951 156.787 23.2949 156.377 23.9199C155.973 24.5384 155.384 25.0267 154.609 25.3848C153.841 25.7428 152.923 25.9219 151.855 25.9219C150.853 25.9219 149.977 25.7591 149.229 25.4336C148.48 25.1081 147.894 24.6491 147.471 24.0566C147.048 23.4642 146.81 22.7773 146.758 21.9961H148.555C148.607 22.5039 148.786 22.9336 149.092 23.2852C149.398 23.6302 149.788 23.8906 150.264 24.0664C150.745 24.2357 151.276 24.3203 151.855 24.3203C152.507 24.3203 153.089 24.2161 153.604 24.0078C154.124 23.7995 154.531 23.5033 154.824 23.1191C155.124 22.7285 155.273 22.2826 155.273 21.7812C155.273 21.3516 155.15 20.9902 154.902 20.6973C154.661 20.4043 154.342 20.1667 153.945 19.9844C153.555 19.8021 153.066 19.6263 152.48 19.457L150.742 18.9883C149.583 18.6497 148.695 18.181 148.076 17.582C147.458 16.9831 147.148 16.2214 147.148 15.2969C147.148 14.5221 147.36 13.8353 147.783 13.2363C148.213 12.6309 148.796 12.1621 149.531 11.8301C150.273 11.498 151.1 11.332 152.012 11.332C152.91 11.332 153.717 11.4948 154.434 11.8203C155.15 12.1458 155.716 12.5951 156.133 13.168C156.549 13.7344 156.771 14.3724 156.797 15.082H155.078Z" fill="black"/>
<path d="M163.526 16.4688H161.299V22.6211C161.299 23.2461 161.423 23.666 161.67 23.8809C161.918 24.0957 162.256 24.2031 162.686 24.2031C163.011 24.2031 163.343 24.1901 163.682 24.1641V25.7266C163.343 25.7786 162.953 25.8047 162.51 25.8047C162.015 25.8047 161.547 25.7038 161.104 25.502C160.661 25.2936 160.3 24.9811 160.02 24.5645C159.74 24.1478 159.6 23.6432 159.6 23.0508V16.4688H157.998V15.0625H159.6V12.5234H161.299V15.0625H163.526V16.4688Z" fill="black"/>
<path d="M171.993 15.0625H173.653V25.668H171.993V23.8711H171.876C171.602 24.4505 171.199 24.9193 170.665 25.2773C170.137 25.6289 169.493 25.8047 168.731 25.8047C168.048 25.8047 167.449 25.6582 166.934 25.3652C166.42 25.0658 166.016 24.6165 165.723 24.0176C165.437 23.4186 165.294 22.6797 165.294 21.8008V15.0625H166.973V21.6836C166.973 22.1849 167.071 22.6243 167.266 23.002C167.462 23.3796 167.732 23.6725 168.077 23.8809C168.429 24.0827 168.829 24.1836 169.278 24.1836C169.701 24.1836 170.121 24.0762 170.538 23.8613C170.961 23.6465 171.309 23.3242 171.583 22.8945C171.856 22.4583 171.993 21.931 171.993 21.3125V15.0625Z" fill="black"/>
<path d="M179.952 25.8828C179.073 25.8828 178.292 25.6582 177.609 25.209C176.932 24.7598 176.401 24.1217 176.017 23.2949C175.633 22.4616 175.441 21.4948 175.441 20.3945C175.441 19.2943 175.633 18.3307 176.017 17.5039C176.401 16.6771 176.935 16.0423 177.618 15.5996C178.302 15.1504 179.086 14.9258 179.972 14.9258C180.597 14.9258 181.114 15.0299 181.525 15.2383C181.935 15.4401 182.238 15.6582 182.433 15.8926C182.628 16.1204 182.83 16.4036 183.038 16.7422H183.155V11.5273H184.855V25.668H183.214V24.0469H183.038C182.817 24.3919 182.605 24.6816 182.404 24.916C182.208 25.1504 181.905 25.3717 181.495 25.5801C181.085 25.7819 180.571 25.8828 179.952 25.8828ZM180.187 24.3789C180.818 24.3789 181.362 24.2129 181.818 23.8809C182.273 23.5423 182.618 23.0703 182.853 22.4648C183.094 21.8529 183.214 21.1497 183.214 20.3555C183.214 19.5677 183.097 18.8809 182.863 18.2949C182.635 17.7025 182.293 17.2435 181.837 16.918C181.381 16.5924 180.831 16.4297 180.187 16.4297C179.529 16.4297 178.973 16.6022 178.517 16.9473C178.061 17.2858 177.716 17.7513 177.482 18.3438C177.254 18.9362 177.14 19.6068 177.14 20.3555C177.14 21.1237 177.254 21.8138 177.482 22.4258C177.716 23.0312 178.061 23.5098 178.517 23.8613C178.979 24.2064 179.536 24.3789 180.187 24.3789Z" fill="black"/>
<path d="M187.365 15.0625H189.045V25.668H187.365V15.0625ZM188.205 13.3047C187.879 13.3047 187.602 13.1973 187.375 12.9824C187.147 12.7676 187.033 12.5039 187.033 12.1914C187.033 11.8789 187.147 11.6152 187.375 11.4004C187.602 11.1855 187.879 11.0781 188.205 11.0781C188.53 11.0781 188.81 11.1855 189.045 11.4004C189.279 11.6152 189.396 11.8789 189.396 12.1914C189.396 12.5039 189.279 12.7676 189.045 12.9824C188.81 13.1973 188.53 13.3047 188.205 13.3047Z" fill="black"/>
<path d="M195.656 25.8828C194.699 25.8828 193.853 25.6582 193.117 25.209C192.388 24.7533 191.822 24.112 191.418 23.2852C191.014 22.4583 190.812 21.5013 190.812 20.4141C190.812 19.3268 191.014 18.3698 191.418 17.543C191.822 16.7096 192.388 16.0651 193.117 15.6094C193.853 15.1536 194.699 14.9258 195.656 14.9258C196.607 14.9258 197.443 15.1536 198.166 15.6094C198.895 16.0651 199.458 16.7096 199.855 17.543C200.259 18.3698 200.461 19.3268 200.461 20.4141C200.461 21.5013 200.259 22.4583 199.855 23.2852C199.458 24.112 198.895 24.7533 198.166 25.209C197.443 25.6582 196.607 25.8828 195.656 25.8828ZM195.656 24.3984C196.34 24.3984 196.916 24.2194 197.385 23.8613C197.854 23.4967 198.202 23.015 198.43 22.416C198.664 21.8105 198.781 21.1432 198.781 20.4141C198.781 19.6849 198.664 19.0176 198.43 18.4121C198.202 17.8066 197.854 17.3216 197.385 16.957C196.916 16.5924 196.34 16.4102 195.656 16.4102C194.96 16.4102 194.374 16.5924 193.898 16.957C193.43 17.3216 193.078 17.8066 192.844 18.4121C192.609 19.0176 192.492 19.6849 192.492 20.4141C192.492 21.1432 192.609 21.8105 192.844 22.416C193.078 23.015 193.43 23.4967 193.898 23.8613C194.374 24.2194 194.96 24.3984 195.656 24.3984Z" fill="black"/>
</g>
<defs>
<filter id="filter0_d_57_276" x="0" y="0" width="204.461" height="37.25" filterUnits="userSpaceOnUse" color-interpolation-filters="sRGB">
<feFlood flood-opacity="0" result="BackgroundImageFix"/>
<feColorMatrix in="SourceAlpha" type="matrix" values="0 0 0 0 0 0 0 0 0 0 0 0 0 0 0 0 0 0 127 0" result="hardAlpha"/>
<feOffset/>
<feGaussianBlur stdDeviation="2"/>
<feComposite in2="hardAlpha" operator="out"/>
<feColorMatrix type="matrix" values="0 0 0 0 0 0 0 0 0 0 0 0 0 0 0 0 0 0 0.1 0"/>
<feBlend mode="normal" in2="BackgroundImageFix" result="effect1_dropShadow_57_276"/>
<feBlend mode="normal" in="SourceGraphic" in2="effect1_dropShadow_57_276" result="shape"/>
</filter>
</defs>
</svg>
