<svg width="130" height="73" viewBox="0 0 130 73" fill="none" xmlns="http://www.w3.org/2000/svg">
<path d="M65.3711 72.6562C59.6745 72.6562 54.5475 71.4681 49.9902 69.0918C45.4329 66.6829 41.7871 62.8581 39.0527 57.6172C36.3509 52.3763 35 45.6706 35 37.5C35 29.8828 36.2533 23.2585 38.7598 17.627C41.2663 11.9629 44.8145 7.61719 49.4043 4.58984C54.0267 1.52995 59.4141 0 65.5664 0C70.5794 0 75.0553 0.976562 78.9941 2.92969C82.9655 4.88281 86.123 7.51953 88.4668 10.8398C90.8431 14.1602 92.2266 17.8385 92.6172 21.875H74.3555C73.8672 19.8893 72.8418 18.3919 71.2793 17.3828C69.7168 16.3411 67.8125 15.8203 65.5664 15.8203C61.5299 15.8203 58.5026 17.5456 56.4844 20.9961C54.4661 24.4466 53.457 29.2318 53.457 35.3516H53.8477C55.2474 32.1615 57.5911 29.6387 60.8789 27.7832C64.1992 25.9277 67.9102 25 72.0117 25C76.2109 25 79.9382 25.9766 83.1934 27.9297C86.4486 29.8503 88.9714 32.5195 90.7617 35.9375C92.5846 39.3229 93.4961 43.1641 93.4961 47.4609C93.4961 52.4414 92.3079 56.8359 89.9316 60.6445C87.5553 64.4531 84.235 67.4154 79.9707 69.5312C75.7389 71.6146 70.8724 72.6562 65.3711 72.6562ZM65.2734 58.4961C67.194 58.4961 68.9193 58.0566 70.4492 57.1777C72.0117 56.2663 73.2324 55.0293 74.1113 53.4668C74.9902 51.8717 75.4297 50.0977 75.4297 48.1445C75.4297 46.1589 74.9902 44.3685 74.1113 42.7734C73.265 41.1784 72.0605 39.9414 70.498 39.0625C68.9681 38.151 67.2266 37.6953 65.2734 37.6953C63.3529 37.6953 61.6113 38.151 60.0488 39.0625C58.5189 39.9414 57.3145 41.1784 56.4355 42.7734C55.5566 44.3685 55.1172 46.1589 55.1172 48.1445C55.1172 50.0977 55.5566 51.8717 56.4355 53.4668C57.3145 55.0293 58.5189 56.2663 60.0488 57.1777C61.6113 58.0566 63.3529 58.4961 65.2734 58.4961Z" fill="url(#paint0_linear_121_345)"/>
<defs>
<linearGradient id="paint0_linear_121_345" x1="33.946" y1="7.16102" x2="103.608" y2="36.789" gradientUnits="userSpaceOnUse">
<stop stop-color="#A2E855"/>
<stop offset="0.317708" stop-color="#53D0D5"/>
<stop offset="0.567708" stop-color="#8188FD"/>
<stop offset="0.989583" stop-color="#2829FF"/>
</linearGradient>
</defs>
</svg>
