<svg width="255" height="31" viewBox="0 0 255 31" fill="none" xmlns="http://www.w3.org/2000/svg">
<path d="M17.3097 9.27557C17.196 8.12973 16.7083 7.23958 15.8466 6.60511C14.9848 5.97064 13.8153 5.65341 12.3381 5.65341C11.3343 5.65341 10.4867 5.79545 9.79545 6.07955C9.10417 6.35417 8.57386 6.73769 8.20455 7.23011C7.8447 7.72254 7.66477 8.28125 7.66477 8.90625C7.64583 9.42708 7.75473 9.88163 7.99148 10.2699C8.23769 10.6581 8.57386 10.9943 9 11.2784C9.42614 11.553 9.91856 11.7945 10.4773 12.0028C11.036 12.2017 11.6326 12.3722 12.267 12.5142L14.8807 13.1392C16.1496 13.4233 17.3144 13.8021 18.375 14.2756C19.4356 14.7491 20.3542 15.3314 21.1307 16.0227C21.9072 16.714 22.5085 17.5284 22.9347 18.4659C23.3703 19.4034 23.5928 20.4782 23.6023 21.6903C23.5928 23.4706 23.1383 25.0142 22.2386 26.321C21.3485 27.6184 20.0606 28.6269 18.375 29.3466C16.6989 30.0568 14.6771 30.4119 12.3097 30.4119C9.96117 30.4119 7.91572 30.0521 6.1733 29.3324C4.44034 28.6127 3.08617 27.5473 2.1108 26.1364C1.14489 24.7159 0.638258 22.9593 0.590909 20.8665H6.54261C6.6089 21.8419 6.88826 22.6562 7.38068 23.3097C7.88258 23.9536 8.55019 24.4413 9.38352 24.7727C10.2263 25.0947 11.178 25.2557 12.2386 25.2557C13.2803 25.2557 14.1847 25.1042 14.9517 24.8011C15.7282 24.4981 16.3295 24.0767 16.7557 23.5369C17.1818 22.9972 17.3949 22.3769 17.3949 21.6761C17.3949 21.0227 17.2008 20.4735 16.8125 20.0284C16.4337 19.5833 15.875 19.2045 15.1364 18.892C14.4072 18.5795 13.5123 18.2955 12.4517 18.0398L9.28409 17.2443C6.83144 16.6477 4.89489 15.715 3.47443 14.446C2.05398 13.1771 1.34848 11.4678 1.35795 9.31818C1.34848 7.55682 1.81723 6.01799 2.7642 4.7017C3.72064 3.38542 5.0322 2.35795 6.69886 1.61932C8.36553 0.880681 10.2595 0.511363 12.3807 0.511363C14.5398 0.511363 16.4242 0.880681 18.0341 1.61932C19.6534 2.35795 20.9129 3.38542 21.8125 4.7017C22.7121 6.01799 23.1761 7.54261 23.2045 9.27557H17.3097ZM54.1123 15.4545C54.1123 18.6269 53.511 21.3258 52.3083 23.5511C51.1151 25.7765 49.4864 27.4763 47.422 28.6506C45.367 29.8153 43.0564 30.3977 40.4901 30.3977C37.9049 30.3977 35.5848 29.8106 33.5299 28.6364C31.475 27.4621 29.8509 25.7623 28.6578 23.5369C27.4646 21.3116 26.868 18.6174 26.868 15.4545C26.868 12.2822 27.4646 9.58333 28.6578 7.35795C29.8509 5.13258 31.475 3.4375 33.5299 2.27273C35.5848 1.09848 37.9049 0.511363 40.4901 0.511363C43.0564 0.511363 45.367 1.09848 47.422 2.27273C49.4864 3.4375 51.1151 5.13258 52.3083 7.35795C53.511 9.58333 54.1123 12.2822 54.1123 15.4545ZM47.8765 15.4545C47.8765 13.3996 47.5687 11.6667 46.9532 10.2557C46.3471 8.8447 45.4901 7.77462 44.3822 7.04545C43.2742 6.31629 41.9769 5.9517 40.4901 5.9517C39.0034 5.9517 37.7061 6.31629 36.5981 7.04545C35.4901 7.77462 34.6284 8.8447 34.0129 10.2557C33.4068 11.6667 33.1038 13.3996 33.1038 15.4545C33.1038 17.5095 33.4068 19.2424 34.0129 20.6534C34.6284 22.0644 35.4901 23.1345 36.5981 23.8636C37.7061 24.5928 39.0034 24.9574 40.4901 24.9574C41.9769 24.9574 43.2742 24.5928 44.3822 23.8636C45.4901 23.1345 46.3471 22.0644 46.9532 20.6534C47.5687 19.2424 47.8765 17.5095 47.8765 15.4545ZM83.976 11.0938H77.7544C77.6408 10.2888 77.4088 9.57386 77.0584 8.94886C76.708 8.31439 76.2582 7.77462 75.709 7.32955C75.1597 6.88447 74.5253 6.54356 73.8056 6.30682C73.0953 6.07008 72.3236 5.9517 71.4902 5.9517C69.9845 5.9517 68.673 6.32576 67.5556 7.07386C66.4381 7.8125 65.5717 8.89205 64.9561 10.3125C64.3406 11.7235 64.0328 13.4375 64.0328 15.4545C64.0328 17.5284 64.3406 19.2708 64.9561 20.6818C65.5811 22.0928 66.4523 23.1581 67.5698 23.8778C68.6872 24.5975 69.9798 24.9574 71.4476 24.9574C72.2715 24.9574 73.0338 24.8485 73.7345 24.6307C74.4448 24.4129 75.0745 24.0956 75.6237 23.679C76.173 23.2528 76.6275 22.7367 76.9874 22.1307C77.3567 21.5246 77.6124 20.8333 77.7544 20.0568L83.976 20.0852C83.815 21.4205 83.4126 22.7083 82.7686 23.9489C82.1342 25.1799 81.2772 26.2831 80.1976 27.2585C79.1275 28.2244 77.8491 28.9915 76.3624 29.5597C74.8851 30.1184 73.2137 30.3977 71.3482 30.3977C68.7535 30.3977 66.4334 29.8106 64.388 28.6364C62.352 27.4621 60.7421 25.7623 59.5584 23.5369C58.3842 21.3116 57.797 18.6174 57.797 15.4545C57.797 12.2822 58.3936 9.58333 59.5868 7.35795C60.78 5.13258 62.3993 3.4375 64.4448 2.27273C66.4902 1.09848 68.7914 0.511363 71.3482 0.511363C73.0338 0.511363 74.5963 0.748105 76.0357 1.22159C77.4845 1.69508 78.7677 2.38636 79.8851 3.29545C81.0025 4.19507 81.9116 5.29829 82.6124 6.60511C83.3226 7.91193 83.7772 9.40814 83.976 11.0938ZM92.4939 30H85.903L95.9456 0.90909H103.872L113.9 30H107.309L100.022 7.55682H99.795L92.4939 30ZM92.0819 18.5653H107.65V23.3665H92.0819V18.5653ZM117.042 30V0.90909H128.519C130.716 0.90909 132.591 1.30208 134.144 2.08807C135.706 2.86458 136.895 3.9678 137.709 5.39773C138.533 6.81818 138.945 8.48958 138.945 10.4119C138.945 12.3437 138.528 14.0057 137.695 15.3977C136.862 16.7803 135.654 17.8409 134.073 18.5795C132.501 19.3182 130.597 19.6875 128.363 19.6875H120.678V14.7443H127.368C128.542 14.7443 129.518 14.5833 130.294 14.2614C131.071 13.9394 131.649 13.4564 132.027 12.8125C132.416 12.1686 132.61 11.3684 132.61 10.4119C132.61 9.44602 132.416 8.63163 132.027 7.96875C131.649 7.30587 131.066 6.80398 130.28 6.46307C129.504 6.11269 128.524 5.9375 127.34 5.9375H123.192V30H117.042ZM132.752 16.7614L139.982 30H133.192L126.118 16.7614H132.752ZM151.829 30V0.90909H163.307C165.513 0.90909 167.393 1.33049 168.946 2.1733C170.499 3.00663 171.683 4.16667 172.497 5.65341C173.321 7.13068 173.733 8.83523 173.733 10.767C173.733 12.6989 173.316 14.4034 172.483 15.8807C171.649 17.358 170.442 18.5085 168.861 19.3324C167.289 20.1562 165.385 20.5682 163.15 20.5682H155.835V15.6392H162.156C163.34 15.6392 164.315 15.4356 165.082 15.0284C165.859 14.6117 166.436 14.0388 166.815 13.3097C167.203 12.571 167.398 11.7235 167.398 10.767C167.398 9.80114 167.203 8.95833 166.815 8.23864C166.436 7.50947 165.859 6.94602 165.082 6.5483C164.306 6.1411 163.321 5.9375 162.128 5.9375H157.98V30H151.829ZM177.368 30V0.90909H183.518V24.929H195.99V30H177.368ZM205.459 30H198.869L208.911 0.90909H216.837L226.866 30H220.275L212.988 7.55682H212.761L205.459 30ZM205.048 18.5653H220.616V23.3665H205.048V18.5653ZM254.34 0.90909V30H249.027L236.371 11.6903H236.158V30H230.007V0.90909H235.405L247.962 19.2045H248.217V0.90909H254.34Z" fill="url(#paint0_linear_93_510)"/>
<defs>
<linearGradient id="paint0_linear_93_510" x1="128" y1="-15" x2="128" y2="45" gradientUnits="userSpaceOnUse">
<stop stop-color="#042C94"/>
<stop offset="1" stop-color="#119FC0"/>
</linearGradient>
</defs>
</svg>
